<mxfile host="Electron" agent="Mozilla/5.0 (Windows NT 10.0; Win64; x64) AppleWebKit/537.36 (KHTML, like Gecko) draw.io/24.7.17 Chrome/128.0.6613.36 Electron/32.0.1 Safari/537.36" version="24.7.17">
  <diagram name="Page-1" id="ORjh0oXL-X_WViiMaL5y">
    <mxGraphModel dx="1434" dy="844" grid="1" gridSize="10" guides="1" tooltips="1" connect="1" arrows="1" fold="1" page="1" pageScale="1" pageWidth="850" pageHeight="1100" math="0" shadow="0">
      <root>
        <mxCell id="0" />
        <mxCell id="1" parent="0" />
        <mxCell id="DGNokgmXc14TQU9gX-Rq-8" style="edgeStyle=orthogonalEdgeStyle;rounded=0;orthogonalLoop=1;jettySize=auto;html=1;exitX=0.5;exitY=1;exitDx=0;exitDy=0;entryX=0.5;entryY=0;entryDx=0;entryDy=0;" edge="1" parent="1" source="1UeGPv-aP7hfJxwdLWDq-1" target="1UeGPv-aP7hfJxwdLWDq-2">
          <mxGeometry relative="1" as="geometry" />
        </mxCell>
        <mxCell id="1UeGPv-aP7hfJxwdLWDq-1" value="Bắt đầu tính toán vị trí toạ độ đỉnh" style="rounded=1;whiteSpace=wrap;html=1;" parent="1" vertex="1">
          <mxGeometry x="365" y="20" width="120" height="60" as="geometry" />
        </mxCell>
        <mxCell id="DGNokgmXc14TQU9gX-Rq-9" style="edgeStyle=orthogonalEdgeStyle;rounded=0;orthogonalLoop=1;jettySize=auto;html=1;exitX=0.5;exitY=1;exitDx=0;exitDy=0;entryX=0.5;entryY=0;entryDx=0;entryDy=0;" edge="1" parent="1" source="1UeGPv-aP7hfJxwdLWDq-2" target="DGNokgmXc14TQU9gX-Rq-1">
          <mxGeometry relative="1" as="geometry" />
        </mxCell>
        <mxCell id="1UeGPv-aP7hfJxwdLWDq-2" value="Khai báo 1 mảng rỗng dùng để chứa vị trí của đỉnh" style="rounded=0;whiteSpace=wrap;html=1;" parent="1" vertex="1">
          <mxGeometry x="365" y="120" width="120" height="60" as="geometry" />
        </mxCell>
        <mxCell id="DGNokgmXc14TQU9gX-Rq-10" style="edgeStyle=orthogonalEdgeStyle;rounded=0;orthogonalLoop=1;jettySize=auto;html=1;exitX=0.5;exitY=1;exitDx=0;exitDy=0;entryX=0.5;entryY=0;entryDx=0;entryDy=0;" edge="1" parent="1" source="DGNokgmXc14TQU9gX-Rq-1" target="DGNokgmXc14TQU9gX-Rq-2">
          <mxGeometry relative="1" as="geometry" />
        </mxCell>
        <mxCell id="DGNokgmXc14TQU9gX-Rq-1" value="Chia hàng và cột.&lt;br&gt;hàng = căn bậc hai của số đỉnh&lt;div&gt;cột = số đỉnh chia hàng&lt;/div&gt;" style="rounded=0;whiteSpace=wrap;html=1;" vertex="1" parent="1">
          <mxGeometry x="318" y="220" width="215" height="60" as="geometry" />
        </mxCell>
        <mxCell id="DGNokgmXc14TQU9gX-Rq-11" style="edgeStyle=orthogonalEdgeStyle;rounded=0;orthogonalLoop=1;jettySize=auto;html=1;exitX=0.5;exitY=1;exitDx=0;exitDy=0;entryX=0.5;entryY=0;entryDx=0;entryDy=0;" edge="1" parent="1" source="DGNokgmXc14TQU9gX-Rq-2" target="DGNokgmXc14TQU9gX-Rq-4">
          <mxGeometry relative="1" as="geometry" />
        </mxCell>
        <mxCell id="DGNokgmXc14TQU9gX-Rq-2" value="Chạy vòng lặp từ 0 đến soDinh" style="rounded=0;whiteSpace=wrap;html=1;" vertex="1" parent="1">
          <mxGeometry x="365" y="320" width="120" height="60" as="geometry" />
        </mxCell>
        <mxCell id="DGNokgmXc14TQU9gX-Rq-12" style="edgeStyle=orthogonalEdgeStyle;rounded=0;orthogonalLoop=1;jettySize=auto;html=1;exitX=0.5;exitY=1;exitDx=0;exitDy=0;entryX=0.5;entryY=0;entryDx=0;entryDy=0;" edge="1" parent="1" source="DGNokgmXc14TQU9gX-Rq-4" target="DGNokgmXc14TQU9gX-Rq-5">
          <mxGeometry relative="1" as="geometry" />
        </mxCell>
        <mxCell id="DGNokgmXc14TQU9gX-Rq-4" value="Chia hàngy và cộtx&lt;div&gt;Hàngy = Chia cột&lt;/div&gt;&lt;div&gt;Cộtx = Chia lấy phần dư Cột&lt;/div&gt;" style="rounded=0;whiteSpace=wrap;html=1;" vertex="1" parent="1">
          <mxGeometry x="345" y="420" width="160" height="80" as="geometry" />
        </mxCell>
        <mxCell id="DGNokgmXc14TQU9gX-Rq-13" style="edgeStyle=orthogonalEdgeStyle;rounded=0;orthogonalLoop=1;jettySize=auto;html=1;exitX=0.5;exitY=1;exitDx=0;exitDy=0;entryX=0.5;entryY=0;entryDx=0;entryDy=0;" edge="1" parent="1" source="DGNokgmXc14TQU9gX-Rq-5" target="DGNokgmXc14TQU9gX-Rq-6">
          <mxGeometry relative="1" as="geometry" />
        </mxCell>
        <mxCell id="DGNokgmXc14TQU9gX-Rq-5" value="Cho biến X = Cộtx nhân kích thước grid&lt;br&gt;Y = Hàngy nhân kích thước grid" style="rounded=0;whiteSpace=wrap;html=1;" vertex="1" parent="1">
          <mxGeometry x="305" y="540" width="240" height="60" as="geometry" />
        </mxCell>
        <mxCell id="DGNokgmXc14TQU9gX-Rq-14" style="edgeStyle=orthogonalEdgeStyle;rounded=0;orthogonalLoop=1;jettySize=auto;html=1;exitX=0.5;exitY=1;exitDx=0;exitDy=0;entryX=0.5;entryY=0;entryDx=0;entryDy=0;" edge="1" parent="1" source="DGNokgmXc14TQU9gX-Rq-6" target="DGNokgmXc14TQU9gX-Rq-7">
          <mxGeometry relative="1" as="geometry" />
        </mxCell>
        <mxCell id="DGNokgmXc14TQU9gX-Rq-6" value="Vị trí đỉnh sẽ bằng X Y đã tính" style="rounded=0;whiteSpace=wrap;html=1;" vertex="1" parent="1">
          <mxGeometry x="338" y="640" width="175" height="60" as="geometry" />
        </mxCell>
        <mxCell id="DGNokgmXc14TQU9gX-Rq-7" value="Trả về vị trí X Y đó" style="rounded=1;whiteSpace=wrap;html=1;" vertex="1" parent="1">
          <mxGeometry x="365" y="740" width="120" height="60" as="geometry" />
        </mxCell>
      </root>
    </mxGraphModel>
  </diagram>
</mxfile>
